# xmcd
#
# Track frame offsets:
#	150
#	39569
#	72346
#	91457
#	119980
#	152658
#	195472
#	218874
#
# Disc length: 3446 seconds
#
# Revision: 1
# Processed by: cddbd v1.5.2PL0 Copyright (c) Steve Scherf et al.
# Submitted via: audiograbber 1.83.01
#
DISCID=740d7408
DTITLE=Beethoven Orchester Bonn, Stefan Blunier - Beethoven- Symphonies No. 1 &
DTITLE=5
DYEAR=2012
DGENRE=Classical
TTITLE0=Symphony No. 1 op. 21 C major - Adagio molto - Allegro con brio
TTITLE1=Symphony No. 1 op. 21 C major - Andante cantabile con moto
TTITLE2=Symphony No. 1 op. 21 C major - Menuetto. Allegro molto e vivace
TTITLE3=Symphony No. 1 op. 21 C major - Adagio - Allegro molto e vivace
TTITLE4=Symphony No. 5 op. 67 C minor - Allegro con brio
TTITLE5=Symphony No. 5 op. 67 C minor - Andante con moto
TTITLE6=Symphony No. 5 op. 67 C minor - Allegro
TTITLE7=Symphony No. 5 op. 67 C minor - Allegro
EXTD=
EXTT0=
EXTT1=
EXTT2=
EXTT3=
EXTT4=
EXTT5=
EXTT6=
EXTT7=
PLAYORDER=
